<?xml version="1.0" encoding="iso-8859-1"?>
<!-- Generator: Adobe Illustrator 19.0.0, SVG Export Plug-In . SVG Version: 6.00 Build 0)  -->
<svg version="1.1" id="Layer_1" xmlns="http://www.w3.org/2000/svg" xmlns:xlink="http://www.w3.org/1999/xlink" x="0px" y="0px"
	 viewBox="0 0 512 512" style="enable-background:new 0 0 512 512;" xml:space="preserve">
<path style="fill:#FFE49C;" d="M472.178,477.38H39.822C17.864,477.38,0,459.515,0,437.557V136.772
	c0-9.425,7.641-17.067,17.067-17.067h477.867c9.425,0,17.067,7.641,17.067,17.067v300.785
	C512,459.515,494.136,477.38,472.178,477.38z"/>
<path style="fill:#FFD155;" d="M494.933,119.706H256V477.38h216.178c21.958,0,39.822-17.864,39.822-39.822V136.772
	C512,127.347,504.359,119.706,494.933,119.706z"/>
<path style="fill:#8DC3E9;" d="M512,153.839H0V74.443C0,52.449,17.829,34.62,39.822,34.62h432.356
	C494.171,34.62,512,52.449,512,74.443V153.839z"/>
<g>
	<circle style="fill:#FFE49C;" cx="71.805" cy="94.231" r="12.836"/>
	<circle style="fill:#FFE49C;" cx="112.959" cy="94.231" r="12.836"/>
	<circle style="fill:#FFE49C;" cx="154.112" cy="94.231" r="12.836"/>
</g>
<path style="fill:#FFBE00;" d="M256,386.379c-9.425,0-17.067-7.641-17.067-17.067v-53.05c0-9.425,7.641-17.067,17.067-17.067
	c9.425,0,17.067,7.641,17.067,17.067v53.05C273.067,378.738,265.425,386.379,256,386.379z"/>
<g>
	<path style="fill:#FFAF00;" d="M256,299.196c-0.001,0-0.002,0-0.003,0v87.183c0.001,0,0.002,0,0.003,0
		c9.425,0,17.067-7.641,17.067-17.067v-53.05C273.067,306.837,265.425,299.196,256,299.196z"/>
	<path style="fill:#FFAF00;" d="M301.235,302.182c-9.425,0-17.067-7.641-17.067-17.067v-49.142c0-9.425,7.641-17.067,17.067-17.067
		h49.142c9.425,0,17.067,7.641,17.067,17.067C367.444,272.481,337.743,302.182,301.235,302.182z M318.301,253.04v10.082
		c4.065-2.565,7.517-6.017,10.082-10.082L318.301,253.04L318.301,253.04z"/>
</g>
<path style="fill:#FFBE00;" d="M210.765,302.182c-36.508,0-66.208-29.701-66.208-66.208c0-9.425,7.641-17.067,17.067-17.067h49.142
	c9.425,0,17.067,7.641,17.067,17.067v49.142C227.832,294.541,220.191,302.182,210.765,302.182z M183.617,253.04
	c2.565,4.065,6.017,7.517,10.082,10.082V253.04L183.617,253.04L183.617,253.04z"/>
<g>
	<path style="fill:#FFD155;" d="M256,333.329c-34.353,0-62.301-27.948-62.301-62.301v-58.394c0-9.425,7.641-17.067,17.067-17.067
		h90.47c9.425,0,17.067,7.641,17.067,17.067v58.394C318.301,305.381,290.353,333.329,256,333.329z"/>
	<path style="fill:#FFD155;" d="M301.235,435.652h-90.47c-9.425,0-17.067-7.641-17.067-17.067v-49.273
		c0-9.425,7.641-17.067,17.067-17.067h90.47c9.425,0,17.067,7.641,17.067,17.067v49.273
		C318.301,428.01,310.661,435.652,301.235,435.652z"/>
</g>
<g>
	<path style="fill:#FFBE00;" d="M301.235,195.567H256v137.762c34.353,0,62.301-27.948,62.301-62.301v-58.394
		C318.301,203.208,310.661,195.567,301.235,195.567z"/>
	<path style="fill:#FFBE00;" d="M301.235,352.246h-45.238v83.406h45.238c9.425,0,17.067-7.641,17.067-17.067v-49.273
		C318.301,359.887,310.661,352.246,301.235,352.246z"/>
</g>
<path style="fill:#48AEE2;" d="M512,74.443c0-21.993-17.829-39.822-39.822-39.822H256v119.219h256V74.443z"/>
<g>
</g>
<g>
</g>
<g>
</g>
<g>
</g>
<g>
</g>
<g>
</g>
<g>
</g>
<g>
</g>
<g>
</g>
<g>
</g>
<g>
</g>
<g>
</g>
<g>
</g>
<g>
</g>
<g>
</g>
</svg>
